<svg width="284" height="93" viewBox="0 0 284 93" fill="none" xmlns="http://www.w3.org/2000/svg">
<path d="M0 15C0 6.71573 6.71573 0 15 0H78C86.2843 0 93 6.71573 93 15V78C93 86.2843 86.2843 93 78 93H15C6.71573 93 0 86.2843 0 78V15Z" fill="url(#paint0_linear)"/>
<path fill-rule="evenodd" clip-rule="evenodd" d="M28.2316 11.2533C31.8242 11.5825 36.4675 12.6751 39.7492 15.9591C43.0303 19.2426 44.1229 23.8852 44.4527 27.4772C44.6204 29.3034 44.5977 30.9338 44.5337 32.1081C44.5016 32.6966 44.4588 33.1743 44.4235 33.5091C44.4059 33.6766 44.39 33.8086 44.3783 33.9011C44.3724 33.9474 44.3675 33.9839 44.3639 34.01L44.3595 34.0413L44.3581 34.0511L44.3574 34.0558C44.3574 34.0563 44.3573 34.0568 42.743 33.8195C42.9803 35.4338 42.9798 35.4339 42.9793 35.434L42.9746 35.4346L42.9648 35.436L42.9334 35.4404C42.9073 35.444 42.8709 35.4489 42.8246 35.4548C42.732 35.4665 42.6 35.4824 42.4325 35.5C42.0977 35.5353 41.62 35.578 41.0315 35.6101C39.8572 35.6741 38.2267 35.6966 36.4005 35.5286C32.8082 35.1983 28.1656 34.1046 24.8822 30.8212C21.6007 27.5396 20.5081 22.8978 20.1783 19.3063C20.0107 17.4803 20.0333 15.85 20.0973 14.6759C20.1294 14.0874 20.1722 13.6097 20.2075 13.2749C20.2251 13.1075 20.241 12.9754 20.2527 12.8829C20.2586 12.8366 20.2635 12.8002 20.2671 12.7741L20.2715 12.7427L20.2729 12.7329L20.2736 12.7283C20.2736 12.7277 20.2737 12.7272 21.888 12.9645C21.6502 11.3503 21.6507 11.3502 21.6512 11.3501L21.6559 11.3495L21.6657 11.348L21.6971 11.3437C21.7232 11.3401 21.7596 11.3352 21.8059 11.3293C21.8985 11.3175 22.0306 11.3016 22.1981 11.2839C22.533 11.2484 23.0109 11.2056 23.5996 11.1733C24.7742 11.1089 26.405 11.0859 28.2316 11.2533ZM23.3803 14.4563C23.3717 14.581 23.3634 14.7136 23.3557 14.8536C23.298 15.9118 23.2782 17.3778 23.4279 19.0079C23.7328 22.3287 24.7143 26.0383 27.1897 28.5137C29.6673 30.9914 33.3783 31.9737 36.6993 32.2791C38.3297 32.4291 39.7958 32.4094 40.8539 32.3517C40.9938 32.3441 41.1263 32.3358 41.2508 32.3272C41.2594 32.2027 41.2677 32.0702 41.2753 31.9303C41.333 30.8721 41.3528 29.406 41.2031 27.7756C40.8982 24.4543 39.9167 20.7434 37.4409 18.2658C34.9657 15.7887 31.2554 14.8073 27.9337 14.5029C26.3031 14.3534 24.8367 14.3736 23.7782 14.4316C23.6379 14.4393 23.5051 14.4477 23.3803 14.4563Z" fill="url(#paint1_linear)"/>
<path d="M21.888 12.9645L20.2737 12.7272C20.3784 12.0148 20.9378 11.4552 21.6502 11.3503L21.888 12.9645Z" fill="url(#paint2_linear)"/>
<path d="M42.743 33.8195L44.3573 34.0568C44.2525 34.7694 43.6929 35.329 42.9803 35.4338L42.743 33.8195Z" fill="url(#paint3_linear)"/>
<path fill-rule="evenodd" clip-rule="evenodd" d="M70.8405 12.9645C72.4548 12.7272 72.4549 12.7277 72.4549 12.7283L72.4551 12.7296L72.4556 12.7329L72.457 12.7427L72.4614 12.7741C72.465 12.8002 72.4699 12.8366 72.4757 12.8829C72.4875 12.9755 72.5034 13.1075 72.521 13.275C72.5563 13.6098 72.599 14.0874 72.6311 14.676C72.6951 15.8502 72.7176 17.4805 72.5496 19.3066C72.2193 22.8982 71.1255 27.5401 67.8418 30.8216C64.5584 34.1047 59.916 35.1983 56.3239 35.5286C54.4977 35.6966 52.8672 35.6741 51.6929 35.6101C51.1044 35.578 50.6267 35.5353 50.2919 35.5C50.1244 35.4824 49.9923 35.4665 49.8998 35.4548C49.8535 35.4489 49.817 35.444 49.7909 35.4404L49.7596 35.436L49.7498 35.4346L49.7464 35.4341L49.7451 35.434C49.7446 35.4339 49.7441 35.4338 49.9814 33.8195C48.3671 34.0568 48.367 34.0563 48.3669 34.0558L48.3663 34.0511L48.3648 34.0413L48.3605 34.01C48.3569 33.9838 48.352 33.9474 48.3461 33.9011C48.3343 33.8085 48.3185 33.6765 48.3009 33.509C48.2655 33.1742 48.2228 32.6965 48.1908 32.108C48.1268 30.9337 48.1043 29.3032 48.2722 27.477C48.6026 23.8847 49.6963 19.2421 52.9797 15.9587C56.2633 12.6752 60.9062 11.5826 64.4984 11.2533C66.3247 11.0859 67.9552 11.1089 69.1295 11.1733C69.7181 11.2056 70.1958 11.2484 70.5306 11.2839C70.6981 11.3016 70.8301 11.3175 70.9227 11.3293C70.969 11.3352 71.0054 11.3401 71.0315 11.3437L71.0629 11.3481L71.0726 11.3495L71.076 11.35L71.0773 11.3501C71.0779 11.3502 71.0784 11.3503 70.8405 12.9645ZM64.7963 14.5029C61.4753 14.8073 57.7647 15.7887 55.2872 18.2662C52.8095 20.7438 51.8272 24.4548 51.5218 27.7758C51.3718 29.4062 51.3915 30.8723 51.4492 31.9304C51.4568 32.0703 51.4651 32.2027 51.4737 32.3272C51.5982 32.3358 51.7306 32.3441 51.8705 32.3517C52.9286 32.4094 54.3947 32.4291 56.0251 32.2791C59.3461 31.9737 63.057 30.9914 65.5347 28.5137L65.5351 28.5133C68.0124 26.0378 68.9947 22.3283 69.3001 19.0077C69.45 17.3776 69.4304 15.9116 69.3727 14.8535C69.3651 14.7135 69.3568 14.5809 69.3482 14.4563C69.2235 14.4476 69.0909 14.4393 68.9508 14.4316C67.8927 14.3736 66.4266 14.3534 64.7963 14.5029Z" fill="url(#paint4_linear)"/>
<path d="M49.9814 33.8195L49.7441 35.4338C49.0315 35.329 48.4718 34.7694 48.3671 34.0568L49.9814 33.8195Z" fill="url(#paint5_linear)"/>
<path d="M72.4548 12.7272L70.8405 12.9645L71.0784 11.3503C71.7907 11.4553 72.3501 12.0148 72.4548 12.7272Z" fill="url(#paint6_linear)"/>
<path fill-rule="evenodd" clip-rule="evenodd" d="M77.6567 38.981C77.6567 38.9805 77.6567 38.98 76.0255 38.9471L77.6567 38.98C77.6713 38.2598 77.2119 37.6153 76.5263 37.3942L76.0255 38.9471C76.5263 37.3942 76.5259 37.3941 76.5253 37.3939L76.5213 37.3926L76.5134 37.3901L76.4892 37.3825L76.4668 37.3755L76.4482 37.3698L76.4078 37.3575C76.3391 37.3369 76.2422 37.3084 76.1195 37.2743C75.8743 37.2062 75.5253 37.1152 75.0937 37.0185C74.2332 36.8256 73.0297 36.6068 71.656 36.5046C68.9685 36.3047 65.3373 36.5288 62.4256 38.6013C59.5125 40.6747 58.116 44.0357 57.4289 46.6425C57.0777 47.9751 56.8924 49.185 56.7944 50.0619C56.7452 50.5018 56.7176 50.8617 56.7022 51.1159C56.6944 51.2431 56.6898 51.3441 56.6869 51.4158C56.6855 51.4516 56.6846 51.4801 56.684 51.501L56.6833 51.5264L56.6831 51.5346L56.683 51.5389C56.683 51.5394 56.683 51.5399 58.3143 51.572L56.683 51.5399C56.6689 52.2598 57.1282 52.9038 57.8134 53.1248L58.3143 51.572C57.8134 53.1248 57.8139 53.125 57.8144 53.1252L57.8156 53.1255L57.8185 53.1265L57.8263 53.129L57.8506 53.1366C57.8705 53.1428 57.8977 53.1512 57.9321 53.1616C58.0008 53.1823 58.0979 53.2107 58.2207 53.2449C58.4662 53.3131 58.8156 53.4043 59.2477 53.5012C60.1092 53.6943 61.3139 53.9135 62.6887 54.0159C65.3777 54.2164 69.0115 53.9927 71.9201 51.9165C74.8277 49.8411 76.2229 46.4809 76.9098 43.8751C77.261 42.543 77.4465 41.3337 77.5448 40.4571C77.5941 40.0175 77.6219 39.6578 77.6374 39.4037C77.6452 39.2766 77.6499 39.1757 77.6528 39.104C77.6542 39.0682 77.6551 39.0397 77.6557 39.0189L77.6564 38.9935L77.6567 38.9823L77.6567 38.981ZM64.3178 41.2598C66.303 39.8469 68.9987 39.5792 71.4139 39.7589C72.5456 39.8431 73.552 40.0208 74.2917 40.1831C74.2039 40.9356 74.0438 41.9455 73.7544 43.0433C73.1368 45.3858 72.0053 47.8464 70.0243 49.2605C68.0442 50.6739 65.3491 50.942 62.9313 50.7617C61.7972 50.6772 60.7885 50.4988 60.0475 50.336C60.135 49.5832 60.2949 48.5726 60.5844 47.4742C61.2018 45.1315 62.334 42.6719 64.3178 41.2598Z" fill="url(#paint7_linear)"/>
<path fill-rule="evenodd" clip-rule="evenodd" d="M21.6502 36.5024C24.3355 36.3036 27.9641 36.5288 30.8718 38.6019C33.7802 40.6755 35.1754 44.0363 35.8623 46.6424C36.2134 47.9748 36.399 49.1845 36.4973 50.0613C36.5466 50.5011 36.5743 50.861 36.5899 51.1151C36.5976 51.2423 36.6024 51.3433 36.6052 51.4149L36.6068 51.4576C36.6074 51.4742 36.6078 51.4883 36.6082 51.5001L36.6089 51.5255L36.6091 51.5337L36.6092 51.538C36.6092 51.5385 36.6092 51.539 34.9779 51.5719C35.4788 53.1247 35.4783 53.1249 35.4778 53.1251L35.4738 53.1264L35.4659 53.1289L35.4417 53.1365C35.4218 53.1427 35.3945 53.1511 35.3601 53.1615C35.2914 53.1822 35.1944 53.2106 35.0715 53.2448C34.8261 53.313 34.4767 53.4042 34.0445 53.5011C33.1831 53.6942 31.9783 53.9134 30.6035 54.0159C27.9145 54.2163 24.2807 53.9926 21.3721 51.9164C18.4633 49.8401 17.0726 46.4775 16.39 43.8703C16.041 42.5375 15.8576 41.3275 15.761 40.4505C15.7125 40.0106 15.6854 39.6507 15.6704 39.3965C15.6628 39.2693 15.6583 39.1683 15.6556 39.0966C15.6543 39.0608 15.6534 39.0322 15.6528 39.0114L15.6522 38.986L15.652 38.9778L15.6519 38.9735C15.6519 38.973 15.6519 38.9725 17.2832 38.9428C16.7829 37.3898 16.7834 37.3897 16.7839 37.3895L16.785 37.3892L16.7879 37.3882L16.7958 37.3857L16.82 37.3781C16.8398 37.3719 16.8671 37.3635 16.9014 37.3532C16.97 37.3326 17.0669 37.3042 17.1895 37.2702C17.4346 37.2021 17.7833 37.1113 18.2147 37.0148C19.0747 36.8224 20.2774 36.6041 21.6502 36.5024ZM19.0143 40.18C19.1006 40.9331 19.2589 41.9443 19.5468 43.0438C20.1604 45.387 21.2881 47.8472 23.268 49.2604C25.248 50.6738 27.9432 50.9419 30.361 50.7617C31.4948 50.6771 32.5032 50.4988 33.2442 50.3361C33.1565 49.5831 32.9963 48.5726 32.7068 47.4741C32.0892 45.1308 30.9578 42.6709 28.9775 41.259C26.9966 39.8467 24.3044 39.5781 21.8912 39.7568C20.7597 39.8406 19.7536 40.018 19.0143 40.18Z" fill="url(#paint8_linear)"/>
<path d="M17.2832 38.9428L15.6519 38.9725C15.6388 38.2533 16.0982 37.6104 16.7829 37.3898L17.2832 38.9428Z" fill="url(#paint9_linear)"/>
<path d="M34.9779 51.5719L36.6092 51.539C36.6237 52.2591 36.1643 52.9036 35.4788 53.1247L34.9779 51.5719Z" fill="url(#paint10_linear)"/>
<path d="M37.7319 66.1876C38.5322 65.4565 39.2476 64.6328 39.862 63.7314C41.05 61.9886 41.8297 60.0004 42.1432 57.9146C42.4567 55.8289 42.2959 53.6993 41.6728 51.6842C41.4226 50.8751 41.1003 50.0926 40.7113 49.3461L41.5286 44.7277C43.001 46.4865 44.1109 48.5231 44.7903 50.7201C45.5584 53.2039 45.7566 55.8288 45.3702 58.3997C44.9838 60.9705 44.0227 63.4212 42.5584 65.5694C41.0946 67.7169 39.1656 69.5069 36.9148 70.8062L37.7319 66.1876Z" fill="url(#paint11_linear)"/>
<path fill-rule="evenodd" clip-rule="evenodd" d="M46.6399 38.6693C43.4491 38.6693 41.2909 39.8565 39.9397 41.3C39.2815 42.0032 38.8361 42.744 38.5518 43.3902C38.2878 43.9904 38.1074 44.6365 38.1074 45.1649C38.1074 45.5771 38.2634 45.974 38.5441 46.2759C39.4035 47.2003 40.1316 48.2335 40.7113 49.3461L37.731 66.1885C36.9841 66.8707 36.1633 67.4723 35.2816 67.9811L35.2795 67.9823C34.0695 68.683 32.7613 69.1986 31.3985 69.5118C30.9567 69.6134 30.5771 69.8942 30.3506 70.2869C30.1242 70.6796 30.0713 71.1488 30.2046 71.582C31.2929 75.1171 33.4856 78.2103 36.461 80.4075C39.4365 82.6048 43.0378 83.7904 46.7366 83.7904C50.4354 83.7904 54.0368 82.6048 57.0122 80.4075C59.9876 78.2103 62.1804 75.1171 63.2686 71.582C63.4019 71.1489 63.3491 70.6799 63.1229 70.2873C62.8966 69.8947 62.5172 69.6138 62.0757 69.5121C59.6772 68.9592 57.4661 67.7857 55.664 66.109C53.862 64.4324 52.5323 62.3115 51.8083 59.959C51.0842 57.6065 50.9912 55.105 51.5386 52.7052C52.086 50.3055 53.2546 48.0918 54.9272 46.2859C55.2066 45.9843 55.3618 45.5883 55.3618 45.1772C55.3618 44.554 55.1311 43.8543 54.8228 43.2368C54.4918 42.5739 53.993 41.8472 53.2991 41.1709C51.8852 39.793 49.7059 38.6693 46.6399 38.6693ZM37.7319 66.1876C37.7316 66.1879 37.7313 66.1882 37.731 66.1885L36.9138 70.8068C35.9566 71.361 34.9496 71.8213 33.9071 72.182C34.8898 74.3981 36.4342 76.3312 38.3996 77.7825C40.8137 79.5652 43.7356 80.5272 46.7366 80.5272C49.7376 80.5272 52.6596 79.5652 55.0737 77.7825C57.0392 76.331 58.5838 74.3977 59.5665 72.1813C57.2971 71.3953 55.2093 70.1432 53.4412 68.4981C51.2204 66.4318 49.5817 63.8181 48.6894 60.9189C47.7971 58.0197 47.6825 54.9369 48.3571 51.9795C48.9641 49.3187 50.1907 46.8435 51.9318 44.753C51.9228 44.7341 51.9133 44.7146 51.9032 44.6945C51.7278 44.3432 51.4417 43.9174 51.0215 43.5078C50.207 42.7141 48.8412 41.9325 46.6399 41.9325C44.3413 41.9325 43.049 42.7534 42.3221 43.53C41.9413 43.9368 41.6907 44.3591 41.5388 44.7043L41.5286 44.7277L40.7113 49.3461C40.7114 49.3462 40.7113 49.346 40.7113 49.3461L37.7319 66.1876Z" fill="url(#paint12_linear)"/>
<path d="M113.299 51.9652L110.257 52.3603V54.7305H125.15V52.3603L119.106 51.9652V41.6546L124.992 41.8126L125.782 45.368H128.271V35.3339H125.743L124.992 38.8103L119.106 38.9288V27.749L127.639 28.1836L129.1 32.5291H132.261L131.866 25.3788H110.059V27.828L113.299 28.3416V51.9652Z" fill="#093948"/>
<path d="M140.481 29.1712H140.52C142.851 29.1712 144.115 27.749 144.115 25.6948C144.115 24.1146 143.127 22.732 140.876 22.732C138.703 22.732 137.399 24.2331 137.399 26.2083C137.399 27.8675 138.505 29.1712 140.481 29.1712ZM138.387 52.0047L135.621 52.3603V54.7305H146.643V52.3603L143.996 52.0442V33.0426L142.89 32.2525H142.811L135.582 33.1216V35.7684L138.387 36.519V52.0047Z" fill="#093948"/>
<path d="M152.477 52.0047L150.186 52.3603V54.7305H160.497V52.3603L158.126 52.0047V37.6251C159.232 36.7955 161.089 35.6894 162.946 35.6894C165.672 35.6894 166.304 37.2301 166.304 41.141V52.0442L164.171 52.3603V54.7305H174.363V52.3603L171.953 52.0442V41.141C171.953 34.8203 170.412 32.3315 165.632 32.3315C162.393 32.3315 159.232 33.9907 157.573 35.5314L157.613 34.5833V33.0426L156.625 32.2525H156.507L149.949 33.0821V35.8079L152.477 36.519V52.0047Z" fill="#093948"/>
<path d="M180.236 52.0047L177.47 52.3603V54.7305H188.65V52.3603L185.766 52.0442V23.0875L184.7 22.3369H184.621L177.312 23.206V25.3393L180.236 25.8528V52.0047Z" fill="#093948"/>
<path d="M196.861 29.1712H196.9C199.231 29.1712 200.495 27.749 200.495 25.6948C200.495 24.1146 199.508 22.732 197.256 22.732C195.083 22.732 193.779 24.2331 193.779 26.2083C193.779 27.8675 194.886 29.1712 196.861 29.1712ZM194.767 52.0047L192.002 52.3603V54.7305H203.023V52.3603L200.377 52.0442V33.0426L199.271 32.2525H199.191L191.962 33.1216V35.7684L194.767 36.519V52.0047Z" fill="#093948"/>
<path d="M213.282 55.0861C216.126 55.0861 219.326 53.9405 220.669 52.9133L219.919 50.7011C219.089 51.0566 217.509 51.4517 216.087 51.4517C214.27 51.4517 214.072 51.1356 214.072 46.9087V35.8079H220.077V32.7661H214.033L213.874 26.9589H210.714C210.398 28.0651 209.845 30.0798 209.41 31.0674C209.094 31.9365 208.739 32.4896 208.265 32.8451C207.672 33.1216 206.606 33.4772 205.855 33.7537V35.8079H208.423V50.306C208.423 53.7034 210.043 55.0861 213.282 55.0861Z" fill="#093948"/>
<path d="M227.275 55.0861C229.368 55.0861 230.909 53.8614 230.909 51.7677C230.909 50.227 229.803 48.7654 227.828 48.7654C225.852 48.7654 224.233 50.1085 224.233 52.0837C224.233 53.8614 225.694 55.0861 227.275 55.0861Z" fill="#093948"/>
<path d="M253.741 55.1256C255.756 55.1256 257.376 54.7305 258.324 54.533L258.363 52.2813H256.151V32.8451L255.203 32.292H255.124L247.974 32.8056V35.0178L250.62 35.6104V50.1085C249.83 50.8196 248.329 51.9257 246.275 51.9257C243.668 51.9257 242.917 50.5431 242.917 46.7507V32.8451L242.127 32.292H242.087L235.372 32.8056V35.0573L237.347 35.6104V46.7507C237.347 52.7553 239.283 55.1651 244.379 55.1651C247.144 55.1651 249.949 53.4269 251.252 51.8467V52.9133C251.252 54.375 252.003 55.1256 253.741 55.1256Z" fill="#093948"/>
<path d="M274.705 35.3339L271.861 38.2967L261.076 52.5578L262.064 54.7305H280.394L281.026 47.5802L278.34 47.2642L276.443 51.8072L267.594 52.2418L270.36 49.3974L280.868 34.8203L279.959 32.7661H262.538V39.4818H265.382L266.291 35.6104L274.705 35.3339Z" fill="#093948"/>
<path d="M112.834 69.2949C112.834 68.1237 113.069 67.194 113.538 66.5059C114.007 65.8132 114.657 65.4668 115.486 65.4668C116.051 65.4668 116.521 65.6195 116.895 65.9248V62.5H117.264V65.918C117.624 65.6172 118.089 65.4668 118.658 65.4668C119.474 65.4668 120.117 65.804 120.586 66.4785C121.055 67.1484 121.297 68.0576 121.311 69.2061V69.4385C121.311 70.5869 121.074 71.4915 120.6 72.1523C120.13 72.8132 119.488 73.1436 118.672 73.1436C118.116 73.1436 117.646 73.0023 117.264 72.7197V75.8438H116.895V72.7197C116.503 73.0023 116.029 73.1436 115.473 73.1436C114.698 73.1436 114.076 72.8428 113.606 72.2412C113.137 71.6351 112.882 70.7965 112.841 69.7256L112.834 69.2949ZM113.217 69.4385C113.217 70.5003 113.413 71.3229 113.805 71.9062C114.201 72.485 114.755 72.7744 115.466 72.7744C115.967 72.7744 116.396 72.6514 116.751 72.4053L116.895 72.3027V66.417C116.635 66.0296 116.163 65.8359 115.479 65.8359C114.778 65.8359 114.224 66.1413 113.818 66.752C113.417 67.3626 113.217 68.2581 113.217 69.4385ZM120.941 69.2949C120.941 68.2331 120.741 67.3923 120.34 66.7725C119.943 66.1481 119.385 65.8359 118.665 65.8359C117.981 65.8359 117.514 66.0251 117.264 66.4033V72.3096C117.651 72.6195 118.123 72.7744 118.679 72.7744C119.403 72.7744 119.962 72.4805 120.354 71.8926C120.745 71.3047 120.941 70.4388 120.941 69.2949Z" fill="#093948"/>
<path d="M128.683 65.6035H129.059V73H128.683V66.2598L124.109 73H123.74V65.6035H124.109V72.3438L128.683 65.6035Z" fill="#093948"/>
<path d="M137.149 73H136.773V69.3838H132.199V73H131.83V65.6035H132.199V69.0146H136.773V65.6035H137.149V73Z" fill="#093948"/>
<path d="M144.698 73C144.607 72.6855 144.562 72.2344 144.562 71.6465C144.27 72.1204 143.871 72.4873 143.365 72.7471C142.86 73.0068 142.288 73.1367 141.65 73.1367C140.966 73.1367 140.415 72.9521 139.995 72.583C139.581 72.2093 139.373 71.724 139.373 71.127C139.373 70.4479 139.679 69.9056 140.289 69.5C140.905 69.0898 141.72 68.8802 142.737 68.8711H144.562V67.791C144.562 67.1712 144.366 66.6904 143.974 66.3486C143.586 66.0068 143.031 65.8359 142.306 65.8359C141.631 65.8359 141.069 66.0091 140.617 66.3555C140.166 66.7018 139.941 67.1302 139.941 67.6406L139.572 67.627C139.572 67.0254 139.836 66.515 140.364 66.0957C140.893 65.6764 141.54 65.4668 142.306 65.4668C143.103 65.4668 143.737 65.6673 144.206 66.0684C144.676 66.4648 144.917 67.0254 144.931 67.75V71.2842C144.931 72.0954 144.995 72.6468 145.122 72.9385V73H144.698ZM141.65 72.7744C142.342 72.7744 142.937 72.6195 143.434 72.3096C143.935 71.9997 144.311 71.5645 144.562 71.0039V69.2471H142.853C141.795 69.2471 140.987 69.4567 140.426 69.876C139.97 70.2178 139.742 70.6439 139.742 71.1543C139.742 71.6055 139.922 71.9883 140.282 72.3027C140.642 72.6172 141.098 72.7744 141.65 72.7744Z" fill="#093948"/>
<path d="M153.055 73H152.679V69.3838H148.106V73H147.737V65.6035H148.106V69.0146H152.679V65.6035H153.055V73Z" fill="#093948"/>
<path d="M158.335 72.7676C159.005 72.7676 159.557 72.5898 159.99 72.2344C160.427 71.8789 160.666 71.3867 160.707 70.7578H161.077C161.04 71.4733 160.764 72.0498 160.249 72.4873C159.734 72.9202 159.096 73.1367 158.335 73.1367C157.41 73.1367 156.674 72.8018 156.127 72.1318C155.585 71.4619 155.314 70.5527 155.314 69.4043V69.1582C155.314 68.0371 155.585 67.1416 156.127 66.4717C156.674 65.8018 157.406 65.4668 158.322 65.4668C159.106 65.4668 159.753 65.7015 160.263 66.1709C160.774 66.6403 161.045 67.2646 161.077 68.0439H160.707C160.676 67.3786 160.441 66.8454 160.003 66.4443C159.57 66.0387 159.01 65.8359 158.322 65.8359C157.497 65.8359 156.85 66.1344 156.38 66.7314C155.915 67.3239 155.683 68.1488 155.683 69.2061V69.4453C155.683 70.4798 155.918 71.2933 156.387 71.8857C156.861 72.4736 157.51 72.7676 158.335 72.7676Z" fill="#093948"/>
<path d="M162.795 69.1582C162.795 68.4518 162.93 67.8184 163.199 67.2578C163.472 66.6927 163.855 66.2529 164.347 65.9385C164.844 65.624 165.404 65.4668 166.029 65.4668C166.649 65.4668 167.205 65.6195 167.697 65.9248C168.189 66.2301 168.572 66.6631 168.845 67.2236C169.123 67.7842 169.264 68.4154 169.269 69.1172V69.4453C169.269 70.1562 169.135 70.792 168.866 71.3525C168.597 71.9131 168.214 72.3506 167.717 72.665C167.225 72.9795 166.667 73.1367 166.042 73.1367C165.418 73.1367 164.858 72.9818 164.361 72.6719C163.869 72.362 163.486 71.929 163.212 71.373C162.939 70.8125 162.8 70.1836 162.795 69.4863V69.1582ZM163.165 69.4453C163.165 70.0605 163.285 70.6257 163.527 71.1406C163.773 71.651 164.112 72.0498 164.545 72.3369C164.983 72.624 165.482 72.7676 166.042 72.7676C166.886 72.7676 167.571 72.4508 168.1 71.8174C168.633 71.1839 168.9 70.3682 168.9 69.3701V69.1582C168.9 68.5521 168.777 67.9915 168.531 67.4766C168.285 66.9616 167.943 66.5605 167.505 66.2734C167.072 65.9818 166.58 65.8359 166.029 65.8359C165.186 65.8359 164.498 66.1572 163.964 66.7998C163.431 67.4424 163.165 68.2513 163.165 69.2266V69.4453Z" fill="#093948"/>
<path d="M171.548 73V65.6035H174.091C174.989 65.6035 175.675 65.7676 176.149 66.0957C176.627 66.4193 176.867 66.8932 176.867 67.5176C176.867 67.9277 176.739 68.2855 176.484 68.5908C176.233 68.8962 175.873 69.1012 175.404 69.2061H175.411C175.912 69.2607 176.334 69.4567 176.675 69.7939C177.017 70.1312 177.188 70.5322 177.188 70.9971C177.188 71.6305 176.953 72.1227 176.484 72.4736C176.019 72.8245 175.367 73 174.529 73H171.548ZM171.918 69.4385V72.6309H174.563C175.269 72.6309 175.823 72.4896 176.224 72.207C176.625 71.9245 176.826 71.5234 176.826 71.0039C176.826 70.5391 176.621 70.1631 176.211 69.876C175.805 69.5843 175.249 69.4385 174.543 69.4385H171.918ZM171.918 69.0693H174.228C174.975 69.0693 175.541 68.9372 175.923 68.6729C176.306 68.4085 176.498 68.0166 176.498 67.4971C176.498 66.9684 176.293 66.5833 175.882 66.3418C175.472 66.1003 174.875 65.9795 174.091 65.9795H171.918V69.0693Z" fill="#093948"/>
<path d="M184.355 73C184.264 72.6855 184.218 72.2344 184.218 71.6465C183.927 72.1204 183.528 72.4873 183.022 72.7471C182.516 73.0068 181.944 73.1367 181.306 73.1367C180.623 73.1367 180.071 72.9521 179.652 72.583C179.237 72.2093 179.03 71.724 179.03 71.127C179.03 70.4479 179.335 69.9056 179.946 69.5C180.561 69.0898 181.377 68.8802 182.393 68.8711H184.218V67.791C184.218 67.1712 184.022 66.6904 183.631 66.3486C183.243 66.0068 182.687 65.8359 181.963 65.8359C181.288 65.8359 180.725 66.0091 180.274 66.3555C179.823 66.7018 179.597 67.1302 179.597 67.6406L179.228 67.627C179.228 67.0254 179.492 66.515 180.021 66.0957C180.55 65.6764 181.197 65.4668 181.963 65.4668C182.76 65.4668 183.394 65.6673 183.863 66.0684C184.332 66.4648 184.574 67.0254 184.588 67.75V71.2842C184.588 72.0954 184.651 72.6468 184.779 72.9385V73H184.355ZM181.306 72.7744C181.999 72.7744 182.594 72.6195 183.09 72.3096C183.592 71.9997 183.968 71.5645 184.218 71.0039V69.2471H182.509C181.452 69.2471 180.643 69.4567 180.083 69.876C179.627 70.2178 179.399 70.6439 179.399 71.1543C179.399 71.6055 179.579 71.9883 179.939 72.3027C180.299 72.6172 180.755 72.7744 181.306 72.7744Z" fill="#093948"/>
<path d="M192.534 65.6035V73H192.165V69.9238H189.458L187.605 73H187.168L189.034 69.8896C188.501 69.8031 188.079 69.5706 187.769 69.1924C187.459 68.8141 187.304 68.3379 187.304 67.7637C187.304 67.1211 187.521 66.6038 187.954 66.2119C188.391 65.82 188.984 65.6172 189.731 65.6035H192.534ZM187.674 67.7773C187.674 68.3105 187.833 68.7367 188.152 69.0557C188.476 69.3747 188.911 69.5387 189.458 69.5479H192.165V65.9795H189.8C189.134 65.9795 188.612 66.139 188.234 66.458C187.86 66.777 187.674 67.2168 187.674 67.7773Z" fill="#093948"/>
<path d="M203.559 65.9795H199.485V73H199.116V65.6035H203.559V65.9795Z" fill="#093948"/>
<path d="M211.123 69.3701C211.123 70.5231 210.875 71.4391 210.378 72.1182C209.881 72.7972 209.204 73.1367 208.348 73.1367C207.787 73.1367 207.288 73.0228 206.851 72.7949C206.413 72.5671 206.071 72.2526 205.825 71.8516V75.8438H205.456V65.6035H205.825V66.9229C206.08 66.4535 206.424 66.0934 206.857 65.8428C207.29 65.5921 207.783 65.4668 208.334 65.4668C209.2 65.4668 209.881 65.7995 210.378 66.4648C210.875 67.1257 211.123 68.0553 211.123 69.2539V69.3701ZM210.747 69.2266C210.747 68.1647 210.535 67.3353 210.111 66.7383C209.692 66.1367 209.102 65.8359 208.341 65.8359C207.721 65.8359 207.195 65.9977 206.762 66.3213C206.329 66.6403 206.017 67.1006 205.825 67.7021V71.1611C206.017 71.6715 206.329 72.068 206.762 72.3506C207.199 72.6286 207.73 72.7676 208.354 72.7676C209.111 72.7676 209.699 72.4668 210.118 71.8652C210.537 71.2637 210.747 70.3841 210.747 69.2266Z" fill="#093948"/>
<path d="M218.338 73C218.247 72.6855 218.201 72.2344 218.201 71.6465C217.91 72.1204 217.511 72.4873 217.005 72.7471C216.499 73.0068 215.927 73.1367 215.289 73.1367C214.606 73.1367 214.054 72.9521 213.635 72.583C213.22 72.2093 213.013 71.724 213.013 71.127C213.013 70.4479 213.318 69.9056 213.929 69.5C214.544 69.0898 215.36 68.8802 216.376 68.8711H218.201V67.791C218.201 67.1712 218.005 66.6904 217.613 66.3486C217.226 66.0068 216.67 65.8359 215.945 65.8359C215.271 65.8359 214.708 66.0091 214.257 66.3555C213.806 66.7018 213.58 67.1302 213.58 67.6406L213.211 67.627C213.211 67.0254 213.475 66.515 214.004 66.0957C214.533 65.6764 215.18 65.4668 215.945 65.4668C216.743 65.4668 217.376 65.6673 217.846 66.0684C218.315 66.4648 218.557 67.0254 218.57 67.75V71.2842C218.57 72.0954 218.634 72.6468 218.762 72.9385V73H218.338ZM215.289 72.7744C215.982 72.7744 216.577 72.6195 217.073 72.3096C217.575 71.9997 217.951 71.5645 218.201 71.0039V69.2471H216.492C215.435 69.2471 214.626 69.4567 214.065 69.876C213.61 70.2178 213.382 70.6439 213.382 71.1543C213.382 71.6055 213.562 71.9883 213.922 72.3027C214.282 72.6172 214.738 72.7744 215.289 72.7744Z" fill="#093948"/>
<path d="M225.307 72.4395L228.67 65.6035H229.114V73H228.738V66.3145L225.45 73H225.163L221.807 66.1504V73H221.438V65.6035H221.943L225.307 72.4395Z" fill="#093948"/>
<path d="M231.325 69.1582C231.325 68.4518 231.46 67.8184 231.729 67.2578C232.002 66.6927 232.385 66.2529 232.877 65.9385C233.374 65.624 233.934 65.4668 234.559 65.4668C235.179 65.4668 235.735 65.6195 236.227 65.9248C236.719 66.2301 237.102 66.6631 237.375 67.2236C237.653 67.7842 237.794 68.4154 237.799 69.1172V69.4453C237.799 70.1562 237.665 70.792 237.396 71.3525C237.127 71.9131 236.744 72.3506 236.247 72.665C235.755 72.9795 235.197 73.1367 234.572 73.1367C233.948 73.1367 233.388 72.9818 232.891 72.6719C232.399 72.362 232.016 71.929 231.742 71.373C231.469 70.8125 231.33 70.1836 231.325 69.4863V69.1582ZM231.695 69.4453C231.695 70.0605 231.815 70.6257 232.057 71.1406C232.303 71.651 232.642 72.0498 233.075 72.3369C233.513 72.624 234.012 72.7676 234.572 72.7676C235.416 72.7676 236.101 72.4508 236.63 71.8174C237.163 71.1839 237.43 70.3682 237.43 69.3701V69.1582C237.43 68.5521 237.307 67.9915 237.061 67.4766C236.815 66.9616 236.473 66.5605 236.035 66.2734C235.602 65.9818 235.11 65.8359 234.559 65.8359C233.716 65.8359 233.028 66.1572 232.494 66.7998C231.961 67.4424 231.695 68.2513 231.695 69.2266V69.4453Z" fill="#093948"/>
<path d="M244.993 65.9795H242.088V73H241.719V65.9795H238.964V65.6035H244.993V65.9795Z" fill="#093948"/>
<path d="M252.181 73H251.805V69.3838H247.232V73H246.863V65.6035H247.232V69.0146H251.805V65.6035H252.181V73Z" fill="#093948"/>
<path d="M254.392 69.1582C254.392 68.4518 254.526 67.8184 254.795 67.2578C255.069 66.6927 255.452 66.2529 255.944 65.9385C256.441 65.624 257.001 65.4668 257.625 65.4668C258.245 65.4668 258.801 65.6195 259.293 65.9248C259.786 66.2301 260.168 66.6631 260.442 67.2236C260.72 67.7842 260.861 68.4154 260.866 69.1172V69.4453C260.866 70.1562 260.731 70.792 260.462 71.3525C260.193 71.9131 259.811 72.3506 259.314 72.665C258.822 72.9795 258.263 73.1367 257.639 73.1367C257.015 73.1367 256.454 72.9818 255.957 72.6719C255.465 72.362 255.082 71.929 254.809 71.373C254.536 70.8125 254.397 70.1836 254.392 69.4863V69.1582ZM254.761 69.4453C254.761 70.0605 254.882 70.6257 255.123 71.1406C255.37 71.651 255.709 72.0498 256.142 72.3369C256.58 72.624 257.079 72.7676 257.639 72.7676C258.482 72.7676 259.168 72.4508 259.697 71.8174C260.23 71.1839 260.497 70.3682 260.497 69.3701V69.1582C260.497 68.5521 260.373 67.9915 260.127 67.4766C259.881 66.9616 259.539 66.5605 259.102 66.2734C258.669 65.9818 258.177 65.8359 257.625 65.8359C256.782 65.8359 256.094 66.1572 255.561 66.7998C255.028 67.4424 254.761 68.2513 254.761 69.2266V69.4453Z" fill="#093948"/>
<path d="M265.592 72.7676C266.262 72.7676 266.814 72.5898 267.247 72.2344C267.684 71.8789 267.923 71.3867 267.964 70.7578H268.334C268.297 71.4733 268.021 72.0498 267.506 72.4873C266.991 72.9202 266.353 73.1367 265.592 73.1367C264.667 73.1367 263.931 72.8018 263.384 72.1318C262.842 71.4619 262.571 70.5527 262.571 69.4043V69.1582C262.571 68.0371 262.842 67.1416 263.384 66.4717C263.931 65.8018 264.663 65.4668 265.579 65.4668C266.362 65.4668 267.01 65.7015 267.52 66.1709C268.03 66.6403 268.302 67.2646 268.334 68.0439H267.964C267.932 67.3786 267.698 66.8454 267.26 66.4443C266.827 66.0387 266.267 65.8359 265.579 65.8359C264.754 65.8359 264.107 66.1344 263.637 66.7314C263.172 67.3239 262.94 68.1488 262.94 69.2061V69.4453C262.94 70.4798 263.175 71.2933 263.644 71.8857C264.118 72.4736 264.767 72.7676 265.592 72.7676Z" fill="#093948"/>
<path d="M275.74 65.9795H272.835V73H272.465V65.9795H269.711V65.6035H275.74V65.9795Z" fill="#093948"/>
<path d="M278.04 68.4199H280.466C281.255 68.4336 281.882 68.6478 282.346 69.0625C282.811 69.4727 283.044 70.0218 283.044 70.71C283.044 71.3936 282.813 71.9427 282.353 72.3574C281.893 72.7721 281.264 72.9863 280.466 73H277.671V65.6035H278.04V68.4199ZM278.04 68.7891V72.6309H280.398C281.109 72.6309 281.665 72.4577 282.066 72.1113C282.472 71.7604 282.674 71.2887 282.674 70.6963C282.674 70.1312 282.476 69.6755 282.08 69.3291C281.688 68.9782 281.146 68.7982 280.453 68.7891H278.04Z" fill="#093948"/>
<defs>
<linearGradient id="paint0_linear" x1="46.5" y1="0" x2="46.5" y2="93" gradientUnits="userSpaceOnUse">
<stop stop-color="#1E4552"/>
<stop offset="1" stop-color="#0B3948"/>
</linearGradient>
<linearGradient id="paint1_linear" x1="46.6543" y1="20.6862" x2="46.6543" y2="76.1414" gradientUnits="userSpaceOnUse">
<stop stop-color="#F2EABF"/>
<stop offset="1" stop-color="#F3DF7B"/>
</linearGradient>
<linearGradient id="paint2_linear" x1="46.6543" y1="20.6862" x2="46.6543" y2="76.1414" gradientUnits="userSpaceOnUse">
<stop stop-color="#F2EABF"/>
<stop offset="1" stop-color="#F3DF7B"/>
</linearGradient>
<linearGradient id="paint3_linear" x1="46.6543" y1="20.6862" x2="46.6543" y2="76.1414" gradientUnits="userSpaceOnUse">
<stop stop-color="#F2EABF"/>
<stop offset="1" stop-color="#F3DF7B"/>
</linearGradient>
<linearGradient id="paint4_linear" x1="46.6543" y1="20.6862" x2="46.6543" y2="76.1414" gradientUnits="userSpaceOnUse">
<stop stop-color="#F2EABF"/>
<stop offset="1" stop-color="#F3DF7B"/>
</linearGradient>
<linearGradient id="paint5_linear" x1="46.6543" y1="20.6862" x2="46.6543" y2="76.1414" gradientUnits="userSpaceOnUse">
<stop stop-color="#F2EABF"/>
<stop offset="1" stop-color="#F3DF7B"/>
</linearGradient>
<linearGradient id="paint6_linear" x1="46.6543" y1="20.6862" x2="46.6543" y2="76.1414" gradientUnits="userSpaceOnUse">
<stop stop-color="#F2EABF"/>
<stop offset="1" stop-color="#F3DF7B"/>
</linearGradient>
<linearGradient id="paint7_linear" x1="46.6543" y1="20.6862" x2="46.6543" y2="76.1414" gradientUnits="userSpaceOnUse">
<stop stop-color="#F2EABF"/>
<stop offset="1" stop-color="#F3DF7B"/>
</linearGradient>
<linearGradient id="paint8_linear" x1="46.6543" y1="20.6862" x2="46.6543" y2="76.1414" gradientUnits="userSpaceOnUse">
<stop stop-color="#F2EABF"/>
<stop offset="1" stop-color="#F3DF7B"/>
</linearGradient>
<linearGradient id="paint9_linear" x1="46.6543" y1="20.6862" x2="46.6543" y2="76.1414" gradientUnits="userSpaceOnUse">
<stop stop-color="#F2EABF"/>
<stop offset="1" stop-color="#F3DF7B"/>
</linearGradient>
<linearGradient id="paint10_linear" x1="46.6543" y1="20.6862" x2="46.6543" y2="76.1414" gradientUnits="userSpaceOnUse">
<stop stop-color="#F2EABF"/>
<stop offset="1" stop-color="#F3DF7B"/>
</linearGradient>
<linearGradient id="paint11_linear" x1="46.6543" y1="20.6862" x2="46.6543" y2="76.1414" gradientUnits="userSpaceOnUse">
<stop stop-color="#F2EABF"/>
<stop offset="1" stop-color="#F3DF7B"/>
</linearGradient>
<linearGradient id="paint12_linear" x1="46.6543" y1="20.6862" x2="46.6543" y2="76.1414" gradientUnits="userSpaceOnUse">
<stop stop-color="#F2EABF"/>
<stop offset="1" stop-color="#F3DF7B"/>
</linearGradient>
</defs>
</svg>